<svg width="28" height="28" viewBox="0 0 28 28" fill="none" xmlns="http://www.w3.org/2000/svg">
<g clip-path="url(#clip0_1_32676)">
<path d="M5.25 3.5C5.25 2.57174 5.61875 1.6815 6.27513 1.02513C6.9315 0.368749 7.82174 0 8.75 0L19.25 0C20.1783 0 21.0685 0.368749 21.7249 1.02513C22.3813 1.6815 22.75 2.57174 22.75 3.5V24.5C22.75 25.4283 22.3813 26.3185 21.7249 26.9749C21.0685 27.6313 20.1783 28 19.25 28H8.75C7.82174 28 6.9315 27.6313 6.27513 26.9749C5.61875 26.3185 5.25 25.4283 5.25 24.5V3.5ZM15.75 22.75C15.75 22.2859 15.5656 21.8408 15.2374 21.5126C14.9092 21.1844 14.4641 21 14 21C13.5359 21 13.0908 21.1844 12.7626 21.5126C12.4344 21.8408 12.25 22.2859 12.25 22.75C12.25 23.2141 12.4344 23.6592 12.7626 23.9874C13.0908 24.3156 13.5359 24.5 14 24.5C14.4641 24.5 14.9092 24.3156 15.2374 23.9874C15.5656 23.6592 15.75 23.2141 15.75 22.75Z" fill="#909090"/>
</g>
<defs>
<clipPath id="clip0_1_32676">
<rect width="28" height="28" fill="white"/>
</clipPath>
</defs>
</svg>
