<svg width="21" height="21" viewBox="0 0 21 21" fill="none" xmlns="http://www.w3.org/2000/svg">
<g clip-path="url(#clip0_1_32650)">
<path d="M7.31518 0.690692C5.21695 1.41859 3.40745 2.80015 2.15245 4.63246C0.897445 6.46477 0.263103 8.65124 0.342592 10.8707C0.422082 13.0902 1.21121 15.2257 2.59408 16.9635C3.97694 18.7013 5.88065 19.9499 8.02557 20.5258C9.76451 20.9746 11.5864 20.9943 13.3346 20.5833C14.9184 20.2275 16.3826 19.4666 17.5839 18.375C18.8341 17.2042 19.7417 15.7147 20.2089 14.0667C20.7165 12.2746 20.8068 10.39 20.473 8.55749H10.708V12.6082H16.3632C16.2502 13.2543 16.008 13.8709 15.6511 14.4211C15.2942 14.9714 14.83 15.444 14.2862 15.8107C13.5957 16.2677 12.8172 16.575 12.0008 16.713C11.182 16.8653 10.3422 16.8653 9.52346 16.713C8.69355 16.5416 7.90849 16.1991 7.21838 15.7073C6.10956 14.9224 5.27699 13.8074 4.83948 12.5212C4.39469 11.211 4.39469 9.79061 4.83948 8.48038C5.15091 7.56198 5.66575 6.72579 6.34557 6.03421C7.12354 5.22825 8.10847 4.65214 9.19231 4.3691C10.2761 4.08606 11.417 4.10702 12.4897 4.42968C13.3277 4.6868 14.0941 5.13626 14.7275 5.74218C15.3652 5.1078 16.0017 4.47179 16.6372 3.83413C16.9653 3.49124 17.323 3.16475 17.6462 2.81366C16.6791 1.91381 15.544 1.21357 14.3059 0.753036C12.0512 -0.0656524 9.58413 -0.0876539 7.31518 0.690692Z" fill="white"/>
<path d="M7.31586 0.690757C9.58462 -0.088118 12.0517 -0.0666957 14.3066 0.75146C15.5449 1.21512 16.6795 1.91873 17.6452 2.82193C17.3171 3.17302 16.9709 3.50115 16.6362 3.8424C15.9997 4.47787 15.3637 5.11115 14.7282 5.74224C14.0947 5.13632 13.3284 4.68687 12.4904 4.42974C11.418 4.10595 10.2772 4.08378 9.19309 4.36566C8.10897 4.64755 7.12343 5.22259 6.34461 6.02771C5.66479 6.71929 5.14995 7.55549 4.83852 8.47388L1.4375 5.84068C2.65486 3.4266 4.76264 1.58002 7.31586 0.690757Z" fill="#E33629"/>
<path d="M0.534488 8.44917C0.717154 7.54317 1.02065 6.6658 1.43683 5.84058L4.83785 8.48034C4.39306 9.79058 4.39306 11.211 4.83785 12.5212C3.70472 13.3962 2.57105 14.2756 1.43683 15.1593C0.395282 13.0861 0.077627 10.7239 0.534488 8.44917Z" fill="#F8BD00"/>
<path d="M10.7087 8.55591H20.4737C20.8076 10.3884 20.7172 12.273 20.2096 14.0651C19.7424 15.7131 18.8349 17.2026 17.5846 18.3734C16.487 17.517 15.3845 16.6672 14.2869 15.8108C14.8311 15.4437 15.2955 14.9706 15.6524 14.4197C16.0094 13.8689 16.2514 13.2516 16.364 12.605H10.7087C10.7071 11.2564 10.7087 9.90614 10.7087 8.55591Z" fill="#587DBD"/>
<path d="M1.43555 15.1594C2.56977 14.2844 3.70344 13.405 4.83656 12.5212C5.27495 13.8078 6.10871 14.9229 7.21875 15.7073C7.91101 16.1968 8.69777 16.5366 9.52875 16.7048C10.3475 16.8571 11.1873 16.8571 12.0061 16.7048C12.8225 16.5668 13.601 16.2595 14.2915 15.8025C15.3891 16.6589 16.4916 17.5087 17.5891 18.3651C16.388 19.4574 14.9238 20.2189 13.3399 20.5751C11.5917 20.9861 9.7698 20.9664 8.03086 20.5176C6.65553 20.1504 5.37087 19.5031 4.25742 18.6162C3.07901 17.6804 2.11646 16.5013 1.43555 15.1594Z" fill="#319F43"/>
</g>
<defs>
<clipPath id="clip0_1_32650">
<rect width="21" height="21" fill="white"/>
</clipPath>
</defs>
</svg>
