<svg width="21" height="21" viewBox="0 0 21 21" fill="none" xmlns="http://www.w3.org/2000/svg">
<path d="M17.0595 6.99043L10.4997 13.3849L3.93978 6.99043C3.82258 6.87595 3.66524 6.81186 3.50141 6.81186C3.33757 6.81186 3.18024 6.87595 3.06303 6.99043C3.00628 7.04603 2.9612 7.1124 2.93042 7.18564C2.89964 7.25889 2.88379 7.33754 2.88379 7.41699C2.88379 7.49644 2.89964 7.57509 2.93042 7.64834C2.9612 7.72158 3.00628 7.78795 3.06303 7.84355L10.0416 14.6476C10.1641 14.767 10.3285 14.8339 10.4997 14.8339C10.6708 14.8339 10.8352 14.767 10.9577 14.6476L17.9363 7.84487C17.9934 7.78922 18.0389 7.72269 18.0699 7.6492C18.1009 7.57571 18.1169 7.49676 18.1169 7.41699C18.1169 7.33723 18.1009 7.25827 18.0699 7.18478C18.0389 7.11129 17.9934 7.04476 17.9363 6.98912C17.8191 6.87464 17.6617 6.81055 17.4979 6.81055C17.3341 6.81055 17.1767 6.87464 17.0595 6.98912V6.99043Z" fill="white"/>
</svg>
