<svg width="34" height="34" viewBox="0 0 34 34" fill="none" xmlns="http://www.w3.org/2000/svg">
<path d="M26.9163 5.66663H7.08301C5.95584 5.66663 4.87483 6.11439 4.0778 6.91142C3.28077 7.70845 2.83301 8.78946 2.83301 9.91663V24.0833C2.83301 25.2105 3.28077 26.2915 4.0778 27.0885C4.87483 27.8855 5.95584 28.3333 7.08301 28.3333H26.9163C28.0435 28.3333 29.1245 27.8855 29.9215 27.0885C30.7186 26.2915 31.1663 25.2105 31.1663 24.0833V9.91663C31.1663 8.78946 30.7186 7.70845 29.9215 6.91142C29.1245 6.11439 28.0435 5.66663 26.9163 5.66663ZM26.9163 8.49996L17.708 14.8325C17.4926 14.9568 17.2484 15.0223 16.9997 15.0223C16.751 15.0223 16.5067 14.9568 16.2913 14.8325L7.08301 8.49996H26.9163Z" fill="#919191"/>
</svg>
