<svg width="26" height="21" viewBox="0 0 26 21" fill="none" xmlns="http://www.w3.org/2000/svg">
<g clip-path="url(#clip0_1_32690)">
<rect width="26" height="20.8" fill="white"/>
<path d="M1.57648 0.206928C1.15398 -0.126197 0.540541 -0.0490099 0.207416 0.37349C-0.125709 0.79599 -0.0485216 1.40943 0.373978 1.74255L24.424 20.5926C24.8465 20.9257 25.4599 20.8485 25.793 20.426C26.1262 20.0035 26.049 19.3901 25.6265 19.0569L21.3527 15.7094C22.9615 14.0601 24.0502 12.2116 24.5987 10.8994C24.7327 10.5785 24.7327 10.221 24.5987 9.90005C23.9934 8.44974 22.7218 6.33724 20.8205 4.57412C18.9112 2.79474 16.2827 1.29974 13.0002 1.29974C10.2296 1.29974 7.9221 2.36818 6.12242 3.76974L1.57648 0.206928ZM9.06367 6.07318C10.0996 5.12662 11.4849 4.54974 13.0002 4.54974C16.2299 4.54974 18.8502 7.17005 18.8502 10.3997C18.8502 11.4113 18.5943 12.3619 18.1434 13.1907L16.5752 11.9638C16.9165 11.1797 17.0059 10.2819 16.7702 9.39224C16.3193 7.7063 14.8284 6.57287 13.1709 6.5038C12.9352 6.49568 12.7971 6.75162 12.8702 6.97912C12.9555 7.23912 13.0043 7.51537 13.0043 7.8038C13.0043 8.21818 12.9068 8.60818 12.7362 8.95349L9.06773 6.07724L9.06367 6.07318ZM15.1534 15.8394C14.4871 16.1035 13.7599 16.2497 13.0002 16.2497C9.77054 16.2497 7.15023 13.6294 7.15023 10.3997C7.15023 10.1194 7.17054 9.84724 7.2071 9.57912L3.37617 6.56068C2.44992 7.76724 1.78773 8.96974 1.40179 9.90005C1.26773 10.221 1.26773 10.5785 1.40179 10.8994C2.0071 12.3497 3.27867 14.4622 5.17992 16.2254C7.08929 18.0047 9.71773 19.4997 13.0002 19.4997C14.9421 19.4997 16.6524 18.9757 18.1271 18.1794L15.1534 15.8394Z" fill="#909090"/>
</g>
<defs>
<clipPath id="clip0_1_32690">
<rect width="26" height="20.8" fill="white"/>
</clipPath>
</defs>
</svg>
