<svg width="22" height="23" viewBox="0 0 22 23" fill="none" xmlns="http://www.w3.org/2000/svg">
<path d="M4.46289 3.79515C4.46289 3.41488 4.61395 3.05018 4.88285 2.78129C5.15174 2.51239 5.51644 2.36133 5.89671 2.36133H11.632C12.0123 2.36133 12.377 2.51239 12.6459 2.78129C12.9148 3.05018 13.0658 3.41488 13.0658 3.79515V8.09662H14.4997C14.8799 8.09662 15.2446 8.24769 15.5135 8.51658C15.7824 8.78547 15.9335 9.15017 15.9335 9.53045V17.1775C15.9335 17.3043 15.8831 17.4258 15.7935 17.5155C15.7039 17.6051 15.5823 17.6554 15.4555 17.6554H13.0658V14.3099C13.0658 14.1831 13.0155 14.0615 12.9258 13.9719C12.8362 13.8823 12.7146 13.8319 12.5879 13.8319H7.80848C7.68172 13.8319 7.56015 13.8823 7.47052 13.9719C7.38089 14.0615 7.33054 14.1831 7.33054 14.3099V17.6554H4.94083C4.81407 17.6554 4.69251 17.6051 4.60288 17.5155C4.51325 17.4258 4.46289 17.3043 4.46289 17.1775V3.79515ZM7.09157 6.6628C7.2817 6.6628 7.46405 6.58727 7.5985 6.45282C7.73295 6.31837 7.80848 6.13602 7.80848 5.94589C7.80848 5.75575 7.73295 5.5734 7.5985 5.43895C7.46405 5.30451 7.2817 5.22898 7.09157 5.22898C6.90143 5.22898 6.71908 5.30451 6.58463 5.43895C6.45019 5.5734 6.37466 5.75575 6.37466 5.94589C6.37466 6.13602 6.45019 6.31837 6.58463 6.45282C6.71908 6.58727 6.90143 6.6628 7.09157 6.6628ZM7.80848 8.81353C7.80848 8.6234 7.73295 8.44105 7.5985 8.3066C7.46405 8.17215 7.2817 8.09662 7.09157 8.09662C6.90143 8.09662 6.71908 8.17215 6.58463 8.3066C6.45019 8.44105 6.37466 8.6234 6.37466 8.81353C6.37466 9.00367 6.45019 9.18602 6.58463 9.32047C6.71908 9.45491 6.90143 9.53045 7.09157 9.53045C7.2817 9.53045 7.46405 9.45491 7.5985 9.32047C7.73295 9.18602 7.80848 9.00367 7.80848 8.81353ZM7.09157 12.3981C7.18571 12.3981 7.27894 12.3795 7.36592 12.3435C7.4529 12.3075 7.53193 12.2547 7.5985 12.1881C7.66507 12.1215 7.71788 12.0425 7.75391 11.9555C7.78994 11.8686 7.80848 11.7753 7.80848 11.6812C7.80848 11.587 7.78994 11.4938 7.75391 11.4068C7.71788 11.3199 7.66507 11.2408 7.5985 11.1742C7.53193 11.1077 7.4529 11.0549 7.36592 11.0188C7.27894 10.9828 7.18571 10.9643 7.09157 10.9643C6.90143 10.9643 6.71908 11.0398 6.58463 11.1742C6.45019 11.3087 6.37466 11.491 6.37466 11.6812C6.37466 11.8713 6.45019 12.0537 6.58463 12.1881C6.71908 12.3226 6.90143 12.3981 7.09157 12.3981ZM10.6761 5.94589C10.6761 5.75575 10.6006 5.5734 10.4661 5.43895C10.3317 5.30451 10.1494 5.22898 9.95921 5.22898C9.76908 5.22898 9.58673 5.30451 9.45228 5.43895C9.31783 5.5734 9.2423 5.75575 9.2423 5.94589C9.2423 6.13602 9.31783 6.31837 9.45228 6.45282C9.58673 6.58727 9.76908 6.6628 9.95921 6.6628C10.1494 6.6628 10.3317 6.58727 10.4661 6.45282C10.6006 6.31837 10.6761 6.13602 10.6761 5.94589ZM9.95921 9.53045C10.1494 9.53045 10.3317 9.45491 10.4661 9.32047C10.6006 9.18602 10.6761 9.00367 10.6761 8.81353C10.6761 8.6234 10.6006 8.44105 10.4661 8.3066C10.3317 8.17215 10.1494 8.09662 9.95921 8.09662C9.76908 8.09662 9.58673 8.17215 9.45228 8.3066C9.31783 8.44105 9.2423 8.6234 9.2423 8.81353C9.2423 9.00367 9.31783 9.18602 9.45228 9.32047C9.58673 9.45491 9.76908 9.53045 9.95921 9.53045ZM10.6761 11.6812C10.6761 11.491 10.6006 11.3087 10.4661 11.1742C10.3317 11.0398 10.1494 10.9643 9.95921 10.9643C9.76908 10.9643 9.58673 11.0398 9.45228 11.1742C9.31783 11.3087 9.2423 11.491 9.2423 11.6812C9.2423 11.8713 9.31783 12.0537 9.45228 12.1881C9.58673 12.3226 9.76908 12.3981 9.95921 12.3981C10.1494 12.3981 10.3317 12.3226 10.4661 12.1881C10.6006 12.0537 10.6761 11.8713 10.6761 11.6812ZM12.8269 12.3981C12.921 12.3981 13.0142 12.3795 13.1012 12.3435C13.1882 12.3075 13.2672 12.2547 13.3338 12.1881C13.4004 12.1215 13.4532 12.0425 13.4892 11.9555C13.5252 11.8686 13.5438 11.7753 13.5438 11.6812C13.5438 11.587 13.5252 11.4938 13.4892 11.4068C13.4532 11.3199 13.4004 11.2408 13.3338 11.1742C13.2672 11.1077 13.1882 11.0549 13.1012 11.0188C13.0142 10.9828 12.921 10.9643 12.8269 10.9643C12.6367 10.9643 12.4544 11.0398 12.3199 11.1742C12.1855 11.3087 12.1099 11.491 12.1099 11.6812C12.1099 11.8713 12.1855 12.0537 12.3199 12.1881C12.4544 12.3226 12.6367 12.3981 12.8269 12.3981ZM12.1099 14.7878V17.6554H10.6761V14.7878H12.1099ZM9.72024 14.7878H8.28642V17.6554H9.72024V14.7878Z" fill="black" fill-opacity="0.8"/>
</svg>
