<svg width="24" height="23" viewBox="0 0 24 23" fill="none" xmlns="http://www.w3.org/2000/svg">
<path d="M20.6605 10.4761V7.86483C20.6605 6.31495 19.3924 5.04688 17.8426 5.04688H14.0853C13.362 5.04688 12.7045 5.32867 12.2067 5.77954C11.7088 5.32867 11.0513 5.04688 10.328 5.04688H6.57075C5.02087 5.04688 3.7528 6.31495 3.7528 7.86483V10.4761C3.17981 10.9928 2.81348 11.7348 2.81348 12.5614V18.1973H4.69211V16.3187H19.7212V18.1973H21.5998V12.5614C21.5998 11.7348 21.2335 10.9928 20.6605 10.4761ZM14.0853 6.92551H17.8426C18.3592 6.92551 18.7819 7.34821 18.7819 7.86483V9.74347H13.146V7.86483C13.146 7.34821 13.5687 6.92551 14.0853 6.92551ZM5.63143 7.86483C5.63143 7.34821 6.05413 6.92551 6.57075 6.92551H10.328C10.8446 6.92551 11.2673 7.34821 11.2673 7.86483V9.74347H5.63143V7.86483Z" fill="#565656"/>
</svg>
