<svg width="162" height="38" viewBox="0 0 162 38" fill="none" xmlns="http://www.w3.org/2000/svg">
<g clip-path="url(#clip0_1_32340)">
<path d="M16.8881 4.2251C26.2043 4.2251 33.7391 11.7599 33.7391 21.0761C33.7391 30.3923 26.2043 37.9271 16.8881 37.9271C7.57191 37.9271 0.0371094 30.3923 0.0371094 21.0761C0.0371094 11.7599 7.57191 4.2251 16.8881 4.2251ZM13.8068 29.959C21.2694 29.959 25.3617 23.7722 25.3617 18.404V17.8744C26.1561 17.2966 26.8542 16.5745 27.3839 15.756C26.6617 16.0689 25.8673 16.2856 25.0488 16.406C25.8913 15.9004 26.5413 15.106 26.8302 14.1672C26.0358 14.6246 25.1692 14.9616 24.2544 15.1542C23.5081 14.3598 22.4489 13.8783 21.2934 13.8783C19.0547 13.8783 17.2251 15.7078 17.2251 17.9466C17.2251 18.2596 17.2492 18.5725 17.3455 18.8614C13.9753 18.6929 10.9662 17.08 8.96813 14.6246C8.63111 15.2264 8.41446 15.9245 8.41446 16.6708C8.41446 18.067 9.13664 19.3188 10.2199 20.041C9.54588 20.041 8.91999 19.8484 8.39038 19.5354V19.5836C8.39038 21.5575 9.78661 23.1945 11.6402 23.5797C11.3032 23.676 10.9421 23.7241 10.581 23.7241C10.3162 23.7241 10.0755 23.7 9.81068 23.6519C10.3162 25.2648 11.8328 26.4443 13.5901 26.4684C12.1939 27.5517 10.4366 28.2016 8.53482 28.2016C8.1978 28.2016 7.88485 28.2016 7.57191 28.1535C9.3533 29.309 11.4958 29.983 13.7827 29.983" fill="white"/>
</g>
<g clip-path="url(#clip1_1_32340)">
<path d="M58.8098 14.9111C57.3927 14.9111 56.0337 15.4741 55.0317 16.4761C54.0297 17.4781 53.4668 18.8371 53.4668 20.2541C53.4668 21.6712 54.0297 23.0302 55.0317 24.0322C56.0337 25.0342 57.3927 25.5971 58.8098 25.5971C60.2268 25.5971 61.5859 25.0342 62.5879 24.0322C63.5899 23.0302 64.1528 21.6712 64.1528 20.2541C64.1528 18.8371 63.5899 17.4781 62.5879 16.4761C61.5859 15.4741 60.2268 14.9111 58.8098 14.9111Z" fill="white"/>
<path fill-rule="evenodd" clip-rule="evenodd" d="M52.3986 4.2251C49.848 4.2251 47.4017 5.23836 45.5981 7.04197C43.7945 8.84558 42.7812 11.2918 42.7812 13.8425V26.6657C42.7813 29.2164 43.7945 31.6626 45.5981 33.4662C47.4017 35.2698 49.848 36.2831 52.3986 36.2831H65.2218C67.7725 36.2831 70.2187 35.2698 72.0224 33.4662C73.826 31.6626 74.8392 29.2164 74.8392 26.6657V13.8425C74.8392 11.2918 73.826 8.84558 72.0224 7.04197C70.2187 5.23836 67.7725 4.2251 65.2218 4.2251L52.3986 4.2251ZM51.33 20.2541C51.33 18.2702 52.1181 16.3676 53.5209 14.9648C54.9238 13.562 56.8264 12.7739 58.8102 12.7739C60.7941 12.7739 62.6967 13.562 64.0995 14.9648C65.5023 16.3676 66.2904 18.2702 66.2904 20.2541C66.2904 22.238 65.5023 24.1406 64.0995 25.5434C62.6967 26.9462 60.7941 27.7343 58.8102 27.7343C56.8264 27.7343 54.9238 26.9462 53.5209 25.5434C52.1181 24.1406 51.33 22.238 51.33 20.2541ZM66.2904 12.7739H68.4276V10.6367H66.2904V12.7739Z" fill="white"/>
</g>
<path d="M117.857 18.1991C117.857 9.88051 111.105 3.12915 102.787 3.12915C94.4682 3.12915 87.7168 9.88051 87.7168 18.1991C87.7168 25.493 92.9009 31.5662 99.7728 32.9677V22.7201H96.7588V18.1991H99.7728V14.4316C99.7728 11.5231 102.139 9.15715 105.047 9.15715H108.815V13.6781H105.801C104.972 13.6781 104.294 14.3563 104.294 15.1851V18.1991H108.815V22.7201H104.294V33.1938C111.904 32.4403 117.857 26.0205 117.857 18.1991Z" fill="white"/>
<g clip-path="url(#clip2_1_32340)">
<path d="M130.735 7.22552C130.735 6.02227 131.735 5.04712 132.969 5.04712H158.916C160.149 5.04712 161.149 6.02227 161.149 7.22552V33.2827C161.149 34.4859 160.149 35.4611 158.916 35.4611H132.969C131.735 35.4611 130.735 34.4859 130.735 33.2827V7.22552ZM140.131 30.5074V16.7736H135.567V30.5074H140.131ZM137.85 14.8974C139.441 14.8974 140.432 13.8444 140.432 12.5252C140.403 11.1774 139.443 10.1529 137.881 10.1529C136.318 10.1529 135.297 11.1793 135.297 12.5252C135.297 13.8444 136.288 14.8974 137.82 14.8974H137.85ZM147.18 30.5074V22.8374C147.18 22.4268 147.21 22.0162 147.332 21.7235C147.661 20.9042 148.412 20.0545 149.674 20.0545C151.326 20.0545 151.985 21.3129 151.985 23.1605V30.5074H156.549V22.6302C156.549 18.4103 154.299 16.4486 151.295 16.4486C148.873 16.4486 147.788 17.7792 147.18 18.7163V18.7638H147.149C147.159 18.748 147.17 18.7321 147.18 18.7163V16.7736H142.618C142.675 18.0624 142.618 30.5074 142.618 30.5074H147.18Z" fill="white"/>
</g>
<defs>
<clipPath id="clip0_1_32340">
<rect width="33.702" height="33.702" fill="white" transform="translate(0.0371094 4.2251)"/>
</clipPath>
<clipPath id="clip1_1_32340">
<rect width="32.058" height="32.058" fill="white" transform="translate(42.7812 4.2251)"/>
</clipPath>
<clipPath id="clip2_1_32340">
<rect width="30.414" height="30.414" fill="white" transform="translate(130.735 5.04712)"/>
</clipPath>
</defs>
</svg>
