<svg width="20" height="19" viewBox="0 0 20 19" fill="none" xmlns="http://www.w3.org/2000/svg">
<path d="M8.8902 1.12594C9.45654 0.244199 10.7453 0.2442 11.3116 1.12594L13.6407 4.75198C13.8355 5.05536 14.1372 5.27453 14.4859 5.3661L18.6542 6.46063C19.6678 6.72678 20.0661 7.95246 19.4025 8.76356L16.6736 12.0991C16.4453 12.3782 16.3301 12.7328 16.3508 13.0928L16.5979 17.3953C16.658 18.4415 15.6153 19.199 14.6389 18.8186L10.6233 17.254C10.2874 17.1231 9.91449 17.1231 9.57852 17.254L5.56297 18.8186C4.58651 19.199 3.54388 18.4415 3.60397 17.3953L3.85109 13.0928C3.87177 12.7328 3.75655 12.3782 3.52823 12.0991L0.799364 8.76356C0.13579 7.95246 0.53404 6.72678 1.54763 6.46063L5.71591 5.3661C6.06466 5.27453 6.36632 5.05536 6.56118 4.75198L8.8902 1.12594Z" fill="#FFBF00"/>
</svg>
