<svg width="548" height="356" viewBox="0 0 548 356" fill="none" xmlns="http://www.w3.org/2000/svg">
<g clip-path="url(#clip0_1_32591)">
<path d="M450.59 40.7676C387.638 -11.8911 300.058 -14.0427 236.163 37.2644C202.387 64.3873 176.202 105.883 180.966 169.064C182.65 191.413 187.337 209.746 194.174 224.755C221.867 285.598 335.607 283.255 341.924 283.246C346.017 283.242 350.109 283.341 354.202 283.544C368.536 284.258 382.795 286.215 396.843 289.395C416.871 293.925 442.368 296.201 465.149 287.621C469.019 286.17 472.78 284.395 476.398 282.313C488.917 275.093 502.931 268.193 511.124 251.069C517.282 238.216 521.767 222.101 523.926 202.029C531.783 128.929 492.522 75.8437 450.59 40.7676Z" fill="#F2F2F2"/>
<path d="M354.476 302.756C453.894 302.756 534.487 294.546 534.487 284.419C534.487 274.291 453.894 266.081 354.476 266.081C255.059 266.081 174.465 274.291 174.465 284.419C174.465 294.546 255.059 302.756 354.476 302.756Z" fill="#3F3D56"/>
<path opacity="0.1" d="M345.682 293.026C438.148 293.026 513.106 289.173 513.106 284.419C513.106 279.665 438.148 275.812 345.682 275.812C253.216 275.812 178.258 279.665 178.258 284.419C178.258 289.173 253.216 293.026 345.682 293.026Z" fill="black"/>
<path d="M438.304 38.829V59.4018H413.624V283.764H465.131V67.9419V59.4018V38.829H438.304Z" fill="#575A89"/>
<path d="M302.382 177.017V141.694H270.905V177.017H259.102V284.152H313.828V177.017H302.382Z" fill="#575A89"/>
<path d="M307.748 234.466H265.183V284.54H307.748V234.466Z" fill="#3F3D56"/>
<path opacity="0.1" d="M271.979 234.466H265.183V284.54H271.979V234.466Z" fill="black"/>
<path d="M395.382 27.5719V39.6051H332.428V27.5719H313.828V284.54H413.624V27.5719H395.382Z" fill="#3F3D56"/>
<path opacity="0.1" d="M409.332 27.572H395.382V39.6053H409.332V27.572Z" fill="black"/>
<path opacity="0.1" d="M327.778 27.572H313.828V284.54H327.778V27.572Z" fill="black"/>
<path d="M242.648 100.936V91.2317H233.348V100.936H216.536V284.54H259.102V100.936H242.648Z" fill="#3F3D56"/>
<path opacity="0.1" d="M238.356 91.2319H233.349V100.936H238.356V91.2319Z" fill="black"/>
<path opacity="0.1" d="M221.545 100.936H216.537V284.54H221.545V100.936Z" fill="black"/>
<path opacity="0.1" d="M409.332 126.555H395.382V284.54H409.332V126.555Z" fill="black"/>
<path opacity="0.1" d="M259.101 100.936H246.225V134.707H259.101V100.936Z" fill="black"/>
<path d="M349.239 60.1782H329.208V69.4943H349.239V60.1782Z" fill="#FF6584"/>
<path d="M391.804 156.056H371.773V165.372H391.804V156.056Z" fill="#FF6584"/>
<path d="M349.239 223.209H329.208V232.525H349.239V223.209Z" fill="#FF6584"/>
<path d="M248.014 142.858H227.983V152.174H248.014V142.858Z" fill="#FF6584"/>
<path d="M296.659 239.901H276.628V249.217H296.659V239.901Z" fill="#FF6584"/>
<path opacity="0.1" d="M303.813 185.169H269.475V200.696H303.813V185.169Z" fill="black"/>
<path opacity="0.1" d="M454.042 77.2577H419.704V92.7845H454.042V77.2577Z" fill="black"/>
<path opacity="0.1" d="M454.042 110.252H419.704V125.779H454.042V110.252Z" fill="black"/>
<path opacity="0.1" d="M454.042 143.247H419.704V158.773H454.042V143.247Z" fill="black"/>
<path opacity="0.1" d="M454.042 176.241H419.704V191.768H454.042V176.241Z" fill="black"/>
<path opacity="0.1" d="M454.042 209.235H419.704V224.762H454.042V209.235Z" fill="black"/>
<path opacity="0.1" d="M454.042 242.23H419.704V257.757H454.042V242.23Z" fill="black"/>
<path d="M476.935 147.516V105.206H451.896V147.516H442.954V284.54H485.52V147.516H476.935Z" fill="#3F3D56"/>
<path opacity="0.1" d="M459.766 105.206H451.896V147.516H459.766V105.206Z" fill="black"/>
<path opacity="0.1" d="M450.823 147.516H442.954V284.54H450.823V147.516Z" fill="black"/>
<path opacity="0.1" d="M485.519 216.222H464.415V229.808H485.519V216.222Z" fill="black"/>
<path d="M485.161 196.037H465.131V205.354H485.161V196.037Z" fill="#FF6584"/>
<path d="M547.857 205.442C547.857 240.025 528.912 252.1 505.543 252.1C482.174 252.1 463.229 240.025 463.229 205.442C463.229 170.86 505.543 126.866 505.543 126.866C505.543 126.866 547.857 170.86 547.857 205.442Z" fill="#6C63FF"/>
<path d="M504.002 246.81L504.435 217.867L522.47 182.061L504.503 213.327L504.698 200.313L517.127 174.408L504.749 196.87L505.1 173.464L518.409 152.84L505.154 169.784L505.373 126.865L503.998 183.681L504.111 181.337L490.578 158.858L503.894 185.837L502.633 211.977L502.595 211.283L486.995 187.627L502.548 213.734L502.39 217.003L502.362 217.052L502.375 217.32L499.176 283.641H503.45L503.963 249.385L519.478 223.343L504.002 246.81Z" fill="#3F3D56"/>
<path d="M237.743 205.817C237.743 240.399 218.799 252.474 195.43 252.474C172.061 252.474 153.116 240.399 153.116 205.817C153.116 171.234 195.43 127.24 195.43 127.24C195.43 127.24 237.743 171.234 237.743 205.817Z" fill="#6C63FF"/>
<path d="M193.888 247.184L194.322 218.242L212.357 182.436L194.39 213.701L194.584 200.688L207.014 174.782L194.636 197.244V197.244L194.986 173.838L208.296 153.214L195.042 170.158L195.261 127.24L193.884 184.055L193.998 181.712L180.465 159.233L193.78 186.211L192.52 212.351L192.482 211.657L176.882 188.002L192.435 214.108L192.277 217.377L192.249 217.426L192.262 217.695L189.063 284.014H193.337L193.85 249.759L209.365 223.717L193.888 247.184Z" fill="#3F3D56"/>
<path d="M100.985 356C156.758 356 201.97 349.363 201.97 341.176C201.97 332.989 156.758 326.352 100.985 326.352C45.2126 326.352 0 332.989 0 341.176C0 349.363 45.2126 356 100.985 356Z" fill="#3F3D56"/>
<path opacity="0.1" d="M100.985 352.778C144.633 352.778 180.017 347.584 180.017 341.176C180.017 334.769 144.633 329.575 100.985 329.575C57.3369 329.575 21.9531 334.769 21.9531 341.176C21.9531 347.584 57.3369 352.778 100.985 352.778Z" fill="black"/>
<path d="M86.7054 130.12C98.5533 130.12 108.158 119.697 108.158 106.839C108.158 93.982 98.5533 83.559 86.7054 83.559C74.8575 83.559 65.2529 93.982 65.2529 106.839C65.2529 119.697 74.8575 130.12 86.7054 130.12Z" fill="#2F2E41"/>
<path d="M92.5642 127.678C99.1953 127.678 104.571 121.845 104.571 114.649C104.571 107.453 99.1953 101.619 92.5642 101.619C85.9332 101.619 80.5576 107.453 80.5576 114.649C80.5576 121.845 85.9332 127.678 92.5642 127.678Z" fill="#FFB9B9"/>
<path d="M85.8496 121.495C85.8496 121.495 88.9021 129.445 84.2216 131.653C79.541 133.862 81.3725 146.892 81.3725 146.892L99.6877 142.696C99.6877 142.696 99.6877 137.174 96.0247 134.745C92.3616 132.316 100.909 121.495 100.909 121.495H85.8496Z" fill="#FFB9B9"/>
<path d="M79.9473 180.239L80.5576 187.527L108.03 192.606L105.385 179.135L79.9473 180.239Z" fill="#FFB9B9"/>
<path d="M79.54 238.762L80.5575 269.68C80.5575 269.68 75.6735 282.268 79.54 305.456C83.4065 328.645 80.5575 335.049 80.5575 335.049L94.3956 337.037L93.5816 328.424L90.3256 320.915L91.7501 278.072C91.7501 278.072 98.0587 262.171 98.2622 259.08C98.4657 255.988 97.8552 233.462 97.8552 233.462L79.54 238.762Z" fill="#FFB9B9"/>
<path opacity="0.1" d="M79.54 238.762L80.5575 269.68C80.5575 269.68 75.6735 282.268 79.54 305.456C83.4065 328.645 80.5575 335.049 80.5575 335.049L94.3956 337.037L93.5816 328.424L90.3256 320.915L91.7501 278.072C91.7501 278.072 98.0587 262.171 98.2622 259.08C98.4657 255.988 97.8552 233.462 97.8552 233.462L79.54 238.762Z" fill="black"/>
<path d="M83.8137 324.449C83.8137 324.449 83.8137 321.578 82.5927 321.357C81.3717 321.136 79.7437 320.474 79.7437 321.357C79.7437 322.24 79.5402 328.424 79.1332 329.307C78.7262 330.191 77.9122 333.503 78.5227 334.828C78.5227 334.828 76.6912 339.908 78.1157 340.35C79.5402 340.791 87.6803 340.791 87.6803 340.791L88.0873 338.362C88.0873 338.362 106.199 344.546 110.065 339.024C110.065 339.024 111.897 335.049 108.641 334.166C108.641 334.166 101.315 334.387 98.6693 331.074C96.0238 327.761 90.9363 320.032 90.9363 320.032C90.9363 320.032 86.8663 320.694 87.2733 323.565V324.449H83.8137Z" fill="#2F2E41"/>
<path d="M90.7334 239.425C90.7334 239.425 92.7684 254.884 99.891 266.147C99.891 266.147 103.554 275.422 102.943 278.293C102.333 281.164 102.333 296.844 108.438 310.757L114.136 331.075L116.985 338.362L121.869 340.571L129.806 341.233L125.329 331.075L123.09 325.774C123.09 325.774 119.02 316.72 119.02 308.769C119.02 300.819 116.375 282.047 116.375 282.047C116.375 282.047 116.375 239.646 112.101 236.996C107.828 234.345 90.7334 239.425 90.7334 239.425Z" fill="#FFB9B9"/>
<path d="M81.5758 185.318L79.5408 184.877V194.814C79.5408 194.814 78.7268 202.544 76.8953 204.09C75.0637 205.636 67.9412 236.112 70.3832 237.879C72.8253 239.646 105.589 248.921 113.526 239.425L108.031 210.494C108.031 210.494 108.438 190.619 108.031 190.619C107.624 190.619 81.5758 185.318 81.5758 185.318Z" fill="#2F2E41"/>
<path d="M100.908 140.708C100.908 140.708 90.7325 133.199 80.5574 142.916C80.5574 142.916 76.8944 159.259 76.2839 163.234C75.6734 167.209 71.8069 183.552 74.6559 185.097C77.5049 186.643 77.5049 181.343 84.831 182.447C92.157 183.552 107.827 183.11 107.827 181.785C107.827 180.46 104.164 169.859 105.588 168.093C107.013 166.326 109.455 157.934 107.013 153.738C104.571 149.542 100.908 140.708 100.908 140.708Z" fill="#6C63FF"/>
<path d="M87.6807 185.318L108.031 195.698C108.031 195.698 116.171 206.961 118.002 200.556C119.834 194.152 111.897 189.514 111.897 189.514L98.2627 181.122L87.6807 184.877L87.6807 185.318Z" fill="#FFB9B9"/>
<path opacity="0.1" d="M89.1044 142.916C89.1044 142.916 77.5048 181.785 88.0869 187.968C98.669 194.152 100.297 182.447 100.297 182.447C100.297 182.447 93.1744 177.589 95.4129 171.626C97.6515 165.663 99.6865 142.916 99.6865 142.916L89.1044 142.916Z" fill="black"/>
<path d="M88.4941 141.591C88.4941 141.591 76.8945 180.459 87.4765 186.643C98.0586 192.827 99.6866 181.122 99.6866 181.122C99.6866 181.122 92.5641 176.263 94.8026 170.301C97.0411 164.338 99.0761 141.591 99.0761 141.591L88.4941 141.591Z" fill="#6C63FF"/>
<path d="M116.462 328.989C116.462 328.989 116.258 325.982 114.964 325.853C113.669 325.724 111.917 325.167 111.98 326.092C112.042 327.017 112.269 333.511 111.906 334.47C111.542 335.429 110.925 338.967 111.659 340.304C111.659 340.304 110.102 345.777 111.626 346.121C113.149 346.464 121.675 345.782 121.675 345.782L121.928 343.203C121.928 343.203 141.338 348.163 144.995 342.056C144.995 342.056 146.63 337.739 143.157 337.087C143.157 337.087 135.5 337.932 132.493 334.684C129.487 331.436 123.608 323.766 123.608 323.766C123.608 323.766 119.392 324.801 120.023 327.774L120.086 328.699L116.462 328.989Z" fill="#2F2E41"/>
<path d="M92.5387 114.6C100.541 114.6 107.028 110.851 107.028 106.227C107.028 101.603 100.541 97.854 92.5387 97.854C84.5361 97.854 78.0488 101.603 78.0488 106.227C78.0488 110.851 84.5361 114.6 92.5387 114.6Z" fill="#2F2E41"/>
<path d="M80.4958 120.318C81.639 120.318 82.5657 118.763 82.5657 116.846C82.5657 114.929 81.639 113.374 80.4958 113.374C79.3525 113.374 78.4258 114.929 78.4258 116.846C78.4258 118.763 79.3525 120.318 80.4958 120.318Z" fill="#FFB9B9"/>
<path d="M73.5328 94.5865C79.1449 94.5865 83.6945 89.6493 83.6945 83.5589C83.6945 77.4685 79.1449 72.5312 73.5328 72.5312C67.9206 72.5312 63.3711 77.4685 63.3711 83.5589C63.3711 89.6493 67.9206 94.5865 73.5328 94.5865Z" fill="#2F2E41"/>
</g>
<defs>
<clipPath id="clip0_1_32591">
<rect width="547.856" height="356" fill="white"/>
</clipPath>
</defs>
</svg>
