<svg width="16" height="17" viewBox="0 0 16 17" fill="none" xmlns="http://www.w3.org/2000/svg">
<path d="M14.2222 15.3H1.77778V5.95H14.2222M14.2222 1.7H13.3333V0H11.5556V1.7H4.44444V0H2.66667V1.7H1.77778C0.791111 1.7 0 2.465 0 3.4V15.3C0 15.7509 0.187301 16.1833 0.520699 16.5021C0.854097 16.8209 1.30628 17 1.77778 17H14.2222C14.6937 17 15.1459 16.8209 15.4793 16.5021C15.8127 16.1833 16 15.7509 16 15.3V3.4C16 2.94913 15.8127 2.51673 15.4793 2.19792C15.1459 1.87911 14.6937 1.7 14.2222 1.7ZM12.0267 8.551L11.0844 7.65L6.74667 11.798L4.86222 9.996L3.92 10.897L6.74667 13.6L12.0267 8.551Z" fill="black" fill-opacity="0.8"/>
</svg>
