<svg width="35" height="23" viewBox="0 0 35 23" fill="none" xmlns="http://www.w3.org/2000/svg">
<path fill-rule="evenodd" clip-rule="evenodd" d="M0 2.20312C0 1.768 0.172851 1.3507 0.480528 1.04303C0.788205 0.735351 1.2055 0.5625 1.64062 0.5625H33.3594C33.7945 0.5625 34.2118 0.735351 34.5195 1.04303C34.8271 1.3507 35 1.768 35 2.20312C35 2.63825 34.8271 3.05555 34.5195 3.36322C34.2118 3.6709 33.7945 3.84375 33.3594 3.84375H1.64062C1.2055 3.84375 0.788205 3.6709 0.480528 3.36322C0.172851 3.05555 0 2.63825 0 2.20312ZM0 11.5C0 11.0649 0.172851 10.6476 0.480528 10.3399C0.788205 10.0322 1.2055 9.85938 1.64062 9.85938H33.3594C33.7945 9.85938 34.2118 10.0322 34.5195 10.3399C34.8271 10.6476 35 11.0649 35 11.5C35 11.9351 34.8271 12.3524 34.5195 12.6601C34.2118 12.9678 33.7945 13.1406 33.3594 13.1406H1.64062C1.2055 13.1406 0.788205 12.9678 0.480528 12.6601C0.172851 12.3524 0 11.9351 0 11.5ZM1.64062 19.1562C1.2055 19.1562 0.788205 19.3291 0.480528 19.6368C0.172851 19.9445 0 20.3618 0 20.7969C0 21.232 0.172851 21.6493 0.480528 21.957C0.788205 22.2646 1.2055 22.4375 1.64062 22.4375H33.3594C33.7945 22.4375 34.2118 22.2646 34.5195 21.957C34.8271 21.6493 35 21.232 35 20.7969C35 20.3618 34.8271 19.9445 34.5195 19.6368C34.2118 19.3291 33.7945 19.1562 33.3594 19.1562H1.64062Z" fill="white"/>
</svg>
